<svg width="349" height="346" viewBox="0 0 349 346" fill="none" xmlns="http://www.w3.org/2000/svg">
<circle cx="172.59" cy="172.59" r="81.107" stroke="white"/>
<circle cx="172.59" cy="172.59" r="110.277" stroke="white"/>
<circle cx="172.59" cy="172.59" r="140.489" stroke="white"/>
<circle cx="172.59" cy="172.59" r="172.09" stroke="white"/>
<circle cx="119.806" cy="107.999" r="6.59801" fill="white"/>
<circle cx="254.197" cy="246.557" r="6.59801" fill="white"/>
<circle cx="177.452" cy="29.8646" r="6.59801" fill="white"/>
<circle cx="38.199" cy="283.367" r="6.59801" fill="white"/>
<circle cx="342.402" cy="188.564" r="6.59801" fill="white"/>
<circle cx="61.8129" cy="181.966" r="6.59801" fill="white"/>
<circle cx="211.136" cy="341.707" r="3.47264" fill="white"/>
<circle cx="174.674" cy="254.197" r="3.47264" fill="white"/>
<circle cx="299.341" cy="54.8677" r="3.47264" fill="white"/>
<circle cx="6.598" cy="126.404" r="3.47264" fill="white"/>
<circle cx="293.438" cy="296.91" r="26.0448" fill="white"/>
<path d="M281.519 292.72C281.487 292.912 281.459 293.136 281.435 293.392C281.411 293.648 281.391 293.872 281.375 294.064C281.367 294.192 281.357 294.402 281.345 294.694C281.333 294.986 281.327 295.204 281.327 295.348C281.327 295.372 281.293 295.394 281.225 295.414C281.157 295.434 281.099 295.444 281.051 295.444C281.011 295.444 280.959 295.434 280.895 295.414C280.831 295.394 280.799 295.372 280.799 295.348C280.783 294.868 280.619 294.418 280.307 293.998C279.995 293.578 279.595 293.368 279.107 293.368H278.771C278.595 293.368 278.427 293.402 278.267 293.47C278.107 293.538 277.983 293.74 277.895 294.076L277.331 296.464H277.847C278.247 296.464 278.567 296.392 278.807 296.248C279.047 296.104 279.239 295.824 279.383 295.408C279.391 295.384 279.427 295.362 279.491 295.342C279.555 295.322 279.607 295.312 279.647 295.312C279.703 295.312 279.765 295.322 279.833 295.342C279.901 295.362 279.927 295.384 279.911 295.408C279.855 295.632 279.795 295.866 279.731 296.11C279.667 296.354 279.611 296.576 279.563 296.776C279.483 297.088 279.429 297.344 279.401 297.544C279.373 297.744 279.319 298.008 279.239 298.336C279.223 298.368 279.183 298.392 279.119 298.408C279.055 298.424 279.007 298.432 278.975 298.432C278.895 298.432 278.831 298.422 278.783 298.402C278.735 298.382 278.711 298.36 278.711 298.336C278.759 297.864 278.693 297.532 278.513 297.34C278.333 297.148 278.063 297.052 277.703 297.052H277.187L276.599 299.524C276.583 299.588 276.569 299.662 276.557 299.746C276.545 299.83 276.539 299.892 276.539 299.932C276.539 300.116 276.591 300.242 276.695 300.31C276.799 300.378 276.931 300.412 277.091 300.412H277.883C278.475 300.412 279.019 300.19 279.515 299.746C280.011 299.302 280.335 298.82 280.487 298.3C280.487 298.284 280.515 298.272 280.571 298.264C280.627 298.256 280.667 298.252 280.691 298.252C280.755 298.252 280.829 298.272 280.913 298.312C280.997 298.352 281.031 298.384 281.015 298.408C280.919 298.752 280.807 299.192 280.679 299.728C280.551 300.264 280.451 300.708 280.379 301.06C279.939 301.044 279.327 301.03 278.543 301.018C277.759 301.006 277.127 301 276.647 301C276.167 301 275.535 301.008 274.751 301.024C273.967 301.04 273.351 301.052 272.903 301.06C272.895 301.06 272.883 301.04 272.867 301C272.851 300.96 272.843 300.912 272.843 300.856C272.843 300.8 272.867 300.734 272.915 300.658C272.963 300.582 273.003 300.54 273.035 300.532C273.507 300.476 273.807 300.376 273.935 300.232C274.063 300.088 274.163 299.852 274.235 299.524L275.483 294.256C275.499 294.184 275.515 294.114 275.531 294.046C275.547 293.978 275.555 293.912 275.555 293.848C275.555 293.672 275.517 293.542 275.441 293.458C275.365 293.374 275.111 293.304 274.679 293.248C274.655 293.24 274.639 293.21 274.631 293.158C274.623 293.106 274.619 293.068 274.619 293.044C274.619 292.988 274.639 292.92 274.679 292.84C274.719 292.76 274.759 292.72 274.799 292.72C275.159 292.728 275.699 292.74 276.419 292.756C277.139 292.772 277.695 292.78 278.087 292.78C278.471 292.78 279.041 292.774 279.797 292.762C280.553 292.75 281.127 292.736 281.519 292.72ZM289.844 292.42C289.844 292.46 289.838 292.508 289.826 292.564C289.814 292.62 289.796 292.676 289.772 292.732L287.492 299.116C287.452 299.22 287.404 299.354 287.348 299.518C287.292 299.682 287.264 299.796 287.264 299.86C287.264 299.916 287.272 299.962 287.288 299.998C287.304 300.034 287.34 300.052 287.396 300.052C287.54 300.052 287.69 299.932 287.846 299.692C288.002 299.452 288.104 299.332 288.152 299.332C288.208 299.332 288.268 299.374 288.332 299.458C288.396 299.542 288.428 299.6 288.428 299.632C288.428 299.776 288.226 300.082 287.822 300.55C287.418 301.018 286.992 301.252 286.544 301.252C286.248 301.252 286.026 301.18 285.878 301.036C285.73 300.892 285.656 300.684 285.656 300.412C285.656 300.26 285.678 300.102 285.722 299.938C285.766 299.774 285.832 299.588 285.92 299.38C285.592 299.932 285.244 300.382 284.876 300.73C284.508 301.078 284.064 301.252 283.544 301.252C283.088 301.252 282.724 301.1 282.452 300.796C282.18 300.492 282.044 300.084 282.044 299.572C282.044 298.572 282.458 297.646 283.286 296.794C284.114 295.942 284.976 295.516 285.872 295.516C286.112 295.516 286.3 295.554 286.436 295.63C286.572 295.706 286.664 295.78 286.712 295.852L287.252 294.328C287.292 294.216 287.324 294.114 287.348 294.022C287.372 293.93 287.384 293.852 287.384 293.788C287.384 293.7 287.338 293.638 287.246 293.602C287.154 293.566 286.984 293.532 286.736 293.5C286.712 293.492 286.69 293.458 286.67 293.398C286.65 293.338 286.64 293.288 286.64 293.248C286.64 293.208 286.648 293.158 286.664 293.098C286.68 293.038 286.704 293.008 286.736 293.008C287.136 292.944 287.63 292.844 288.218 292.708C288.806 292.572 289.208 292.46 289.424 292.372C289.448 292.356 289.494 292.338 289.562 292.318C289.63 292.298 289.684 292.288 289.724 292.288C289.756 292.288 289.784 292.302 289.808 292.33C289.832 292.358 289.844 292.388 289.844 292.42ZM286.472 296.512C286.472 296.392 286.448 296.306 286.4 296.254C286.352 296.202 286.276 296.176 286.172 296.176C285.668 296.176 285.178 296.558 284.702 297.322C284.226 298.086 283.988 298.876 283.988 299.692C283.988 299.884 284.022 300.026 284.09 300.118C284.158 300.21 284.248 300.256 284.36 300.256C284.536 300.256 284.746 300.11 284.99 299.818C285.234 299.526 285.472 299.152 285.704 298.696C285.944 298.216 286.132 297.792 286.268 297.424C286.404 297.056 286.472 296.752 286.472 296.512ZM293.777 293.452C293.777 293.748 293.671 294.004 293.459 294.22C293.247 294.436 292.989 294.544 292.685 294.544C292.389 294.544 292.133 294.436 291.917 294.22C291.701 294.004 291.593 293.748 291.593 293.452C291.593 293.156 291.701 292.9 291.917 292.684C292.133 292.468 292.389 292.36 292.685 292.36C292.989 292.36 293.247 292.468 293.459 292.684C293.671 292.9 293.777 293.156 293.777 293.452ZM292.853 299.644C292.853 299.772 292.551 300.072 291.947 300.544C291.343 301.016 290.797 301.252 290.309 301.252C289.973 301.252 289.729 301.166 289.577 300.994C289.425 300.822 289.349 300.628 289.349 300.412C289.349 300.276 289.369 300.15 289.409 300.034C289.449 299.918 289.493 299.8 289.541 299.68L290.681 297.316C290.745 297.18 290.791 297.07 290.819 296.986C290.847 296.902 290.861 296.828 290.861 296.764C290.861 296.7 290.849 296.654 290.825 296.626C290.801 296.598 290.769 296.584 290.729 296.584C290.625 296.584 290.423 296.742 290.123 297.058C289.823 297.374 289.645 297.532 289.589 297.532C289.525 297.532 289.461 297.488 289.397 297.4C289.333 297.312 289.301 297.256 289.301 297.232C289.301 297.152 289.377 297.022 289.529 296.842C289.681 296.662 289.873 296.472 290.105 296.272C290.313 296.088 290.563 295.916 290.855 295.756C291.147 295.596 291.405 295.516 291.629 295.516C291.989 295.516 292.259 295.618 292.439 295.822C292.619 296.026 292.709 296.272 292.709 296.56C292.709 296.68 292.697 296.808 292.673 296.944C292.649 297.08 292.597 297.22 292.517 297.364L291.605 299.368C291.533 299.536 291.481 299.672 291.449 299.776C291.417 299.88 291.401 299.952 291.401 299.992C291.401 300.04 291.413 300.07 291.437 300.082C291.461 300.094 291.485 300.1 291.509 300.1C291.685 300.1 291.891 299.974 292.127 299.722C292.363 299.47 292.513 299.344 292.577 299.344C292.633 299.344 292.693 299.386 292.757 299.47C292.821 299.554 292.853 299.612 292.853 299.644ZM301.181 293.488C301.181 293.752 301.089 293.986 300.905 294.19C300.721 294.394 300.493 294.496 300.221 294.496C299.989 294.496 299.809 294.424 299.681 294.28C299.553 294.136 299.441 293.976 299.345 293.8C299.249 293.624 299.149 293.464 299.045 293.32C298.941 293.176 298.797 293.104 298.613 293.104C298.229 293.104 297.943 293.3 297.755 293.692C297.567 294.084 297.341 294.844 297.077 295.972H299.561C299.721 295.972 299.901 295.95 300.101 295.906C300.301 295.862 300.437 295.84 300.509 295.84C300.693 295.84 300.783 295.952 300.779 296.176C300.775 296.4 300.721 296.636 300.617 296.884L299.609 299.368C299.537 299.536 299.485 299.666 299.453 299.758C299.421 299.85 299.405 299.916 299.405 299.956C299.405 300.012 299.415 300.05 299.435 300.07C299.455 300.09 299.481 300.1 299.513 300.1C299.681 300.1 299.855 300.006 300.035 299.818C300.215 299.63 300.333 299.536 300.389 299.536C300.445 299.536 300.505 299.578 300.569 299.662C300.633 299.746 300.665 299.804 300.665 299.836C300.665 299.972 300.401 300.242 299.873 300.646C299.345 301.05 298.825 301.252 298.313 301.252C297.985 301.252 297.741 301.194 297.581 301.078C297.421 300.962 297.341 300.788 297.341 300.556C297.341 300.436 297.355 300.312 297.383 300.184C297.411 300.056 297.465 299.888 297.545 299.68L298.517 297.376C298.565 297.248 298.607 297.144 298.643 297.064C298.679 296.984 298.697 296.908 298.697 296.836C298.697 296.772 298.683 296.724 298.655 296.692C298.627 296.66 298.593 296.644 298.553 296.644H296.921L295.937 300.772C295.633 302.012 295.169 302.922 294.545 303.502C293.921 304.082 293.169 304.372 292.289 304.372C291.793 304.372 291.349 304.234 290.957 303.958C290.565 303.682 290.369 303.368 290.369 303.016C290.369 302.76 290.459 302.54 290.639 302.356C290.819 302.172 291.065 302.08 291.377 302.08C291.641 302.08 291.851 302.162 292.007 302.326C292.163 302.49 292.289 302.66 292.385 302.836C292.481 303.012 292.581 303.18 292.685 303.34C292.789 303.5 292.913 303.58 293.057 303.58C293.249 303.58 293.399 303.446 293.507 303.178C293.615 302.91 293.713 302.564 293.801 302.14L294.941 296.776C294.949 296.744 294.947 296.714 294.935 296.686C294.923 296.658 294.885 296.644 294.821 296.644H293.861C293.829 296.644 293.805 296.61 293.789 296.542C293.773 296.474 293.765 296.428 293.765 296.404C293.765 296.364 293.779 296.314 293.807 296.254C293.835 296.194 293.865 296.164 293.897 296.164C294.409 296.1 294.751 296.038 294.923 295.978C295.095 295.918 295.185 295.856 295.193 295.792C295.457 294.864 295.961 294.034 296.705 293.302C297.449 292.57 298.333 292.204 299.357 292.204C299.789 292.204 300.201 292.336 300.593 292.6C300.985 292.864 301.181 293.16 301.181 293.488ZM306.765 296.752C306.765 296.968 306.679 297.156 306.507 297.316C306.335 297.476 306.113 297.556 305.841 297.556C305.649 297.556 305.509 297.488 305.421 297.352C305.333 297.216 305.265 297.064 305.217 296.896C305.161 296.728 305.107 296.574 305.055 296.434C305.003 296.294 304.905 296.224 304.761 296.224C304.657 296.224 304.537 296.294 304.401 296.434C304.265 296.574 304.121 296.788 303.969 297.076C303.825 297.356 303.705 297.712 303.609 298.144C303.513 298.576 303.465 299.032 303.465 299.512C303.465 299.848 303.537 300.084 303.681 300.22C303.825 300.356 303.985 300.424 304.161 300.424C304.353 300.424 304.611 300.312 304.935 300.088C305.259 299.864 305.493 299.652 305.637 299.452C305.653 299.436 305.683 299.444 305.727 299.476C305.771 299.508 305.805 299.54 305.829 299.572C305.853 299.596 305.883 299.634 305.919 299.686C305.955 299.738 305.965 299.776 305.949 299.8C305.845 300.008 305.543 300.302 305.043 300.682C304.543 301.062 303.981 301.252 303.357 301.252C302.877 301.252 302.443 301.078 302.055 300.73C301.667 300.382 301.473 299.88 301.473 299.224C301.473 298.848 301.565 298.458 301.749 298.054C301.933 297.65 302.205 297.244 302.565 296.836C302.885 296.476 303.279 296.166 303.747 295.906C304.215 295.646 304.697 295.516 305.193 295.516C305.649 295.516 306.025 295.656 306.321 295.936C306.617 296.216 306.765 296.488 306.765 296.752ZM313.712 295.864L312.176 299.368C312.104 299.536 312.052 299.666 312.02 299.758C311.988 299.85 311.972 299.916 311.972 299.956C311.972 300.012 311.98 300.05 311.996 300.07C312.012 300.09 312.036 300.1 312.068 300.1C312.236 300.1 312.41 300.006 312.59 299.818C312.77 299.63 312.888 299.536 312.944 299.536C313.008 299.536 313.072 299.578 313.136 299.662C313.2 299.746 313.232 299.804 313.232 299.836C313.232 299.988 312.968 300.262 312.44 300.658C311.912 301.054 311.436 301.252 311.012 301.252C310.684 301.252 310.436 301.19 310.268 301.066C310.1 300.942 310.016 300.764 310.016 300.532C310.016 300.34 310.036 300.182 310.076 300.058C310.116 299.934 310.176 299.788 310.256 299.62C309.896 300.132 309.534 300.532 309.17 300.82C308.806 301.108 308.404 301.252 307.964 301.252C307.588 301.252 307.288 301.12 307.064 300.856C306.84 300.592 306.728 300.248 306.728 299.824C306.728 298.976 307.222 298.06 308.21 297.076C309.198 296.092 310.08 295.6 310.856 295.6C311.088 295.6 311.288 295.66 311.456 295.78C311.624 295.9 311.708 296.064 311.708 296.272L311.924 295.744C311.94 295.696 312.04 295.66 312.224 295.636C312.408 295.612 312.596 295.6 312.788 295.6C313.028 295.6 313.25 295.63 313.454 295.69C313.658 295.75 313.744 295.808 313.712 295.864ZM311.384 296.62C311.384 296.524 311.368 296.454 311.336 296.41C311.304 296.366 311.256 296.344 311.192 296.344C311.048 296.344 310.832 296.47 310.544 296.722C310.256 296.974 309.952 297.296 309.632 297.688C309.344 298.04 309.086 298.42 308.858 298.828C308.63 299.236 308.516 299.568 308.516 299.824C308.516 299.952 308.544 300.042 308.6 300.094C308.656 300.146 308.744 300.172 308.864 300.172C309.176 300.172 309.674 299.69 310.358 298.726C311.042 297.762 311.384 297.06 311.384 296.62Z" fill="black"/>
<circle cx="88.8995" cy="244.821" r="26.0448" fill="white"/>
<path d="M79.0278 244.044C79.0278 245.46 78.4718 246.646 77.3598 247.602C76.2478 248.558 74.9358 249.036 73.4238 249.036C73.1758 249.036 72.8538 249.03 72.4578 249.018C72.0618 249.006 71.7358 249 71.4798 249C71.1438 249 70.7138 249.008 70.1898 249.024C69.6658 249.04 69.2638 249.052 68.9838 249.06C68.9598 249.06 68.9418 249.044 68.9298 249.012C68.9178 248.98 68.9118 248.944 68.9118 248.904C68.9118 248.848 68.9358 248.774 68.9838 248.682C69.0318 248.59 69.0718 248.54 69.1038 248.532C69.5758 248.476 69.8778 248.368 70.0098 248.208C70.1418 248.048 70.2398 247.82 70.3038 247.524L71.5518 242.304C71.5678 242.232 71.5818 242.162 71.5938 242.094C71.6058 242.026 71.6118 241.96 71.6118 241.896C71.6118 241.72 71.5738 241.59 71.4978 241.506C71.4218 241.422 71.1678 241.352 70.7358 241.296C70.7198 241.288 70.7058 241.258 70.6938 241.206C70.6818 241.154 70.6758 241.116 70.6758 241.092C70.6758 241.004 70.6958 240.928 70.7358 240.864C70.7758 240.8 70.8158 240.768 70.8558 240.768C71.1358 240.776 71.4978 240.78 71.9418 240.78C72.3858 240.78 72.7718 240.78 73.0998 240.78C73.3638 240.78 73.6718 240.774 74.0238 240.762C74.3758 240.75 74.6718 240.744 74.9118 240.744C76.3838 240.744 77.4378 241.066 78.0738 241.71C78.7098 242.354 79.0278 243.132 79.0278 244.044ZM76.7358 243.612C76.7358 243.052 76.5938 242.532 76.3098 242.052C76.0258 241.572 75.5238 241.332 74.8038 241.332L74.6478 241.344C74.4878 241.344 74.3538 241.39 74.2458 241.482C74.1378 241.574 74.0478 241.764 73.9758 242.052L72.6318 247.728C72.5598 248.016 72.5578 248.206 72.6258 248.298C72.6938 248.39 72.8078 248.436 72.9678 248.436L73.2798 248.448C74.3118 248.448 75.1458 247.964 75.7818 246.996C76.4178 246.028 76.7358 244.9 76.7358 243.612ZM84.2556 241.452C84.2556 241.748 84.1496 242.004 83.9376 242.22C83.7256 242.436 83.4676 242.544 83.1636 242.544C82.8676 242.544 82.6116 242.436 82.3956 242.22C82.1796 242.004 82.0716 241.748 82.0716 241.452C82.0716 241.156 82.1796 240.9 82.3956 240.684C82.6116 240.468 82.8676 240.36 83.1636 240.36C83.4676 240.36 83.7256 240.468 83.9376 240.684C84.1496 240.9 84.2556 241.156 84.2556 241.452ZM83.3316 247.644C83.3316 247.772 83.0296 248.072 82.4256 248.544C81.8216 249.016 81.2756 249.252 80.7876 249.252C80.4516 249.252 80.2076 249.166 80.0556 248.994C79.9036 248.822 79.8276 248.628 79.8276 248.412C79.8276 248.276 79.8476 248.15 79.8876 248.034C79.9276 247.918 79.9716 247.8 80.0196 247.68L81.1596 245.316C81.2236 245.18 81.2696 245.07 81.2976 244.986C81.3256 244.902 81.3396 244.828 81.3396 244.764C81.3396 244.7 81.3276 244.654 81.3036 244.626C81.2796 244.598 81.2476 244.584 81.2076 244.584C81.1036 244.584 80.9016 244.742 80.6016 245.058C80.3016 245.374 80.1236 245.532 80.0676 245.532C80.0036 245.532 79.9396 245.488 79.8756 245.4C79.8116 245.312 79.7796 245.256 79.7796 245.232C79.7796 245.152 79.8556 245.022 80.0076 244.842C80.1596 244.662 80.3516 244.472 80.5836 244.272C80.7916 244.088 81.0416 243.916 81.3336 243.756C81.6256 243.596 81.8836 243.516 82.1076 243.516C82.4676 243.516 82.7376 243.618 82.9176 243.822C83.0976 244.026 83.1876 244.272 83.1876 244.56C83.1876 244.68 83.1756 244.808 83.1516 244.944C83.1276 245.08 83.0756 245.22 82.9956 245.364L82.0836 247.368C82.0116 247.536 81.9596 247.672 81.9276 247.776C81.8956 247.88 81.8796 247.952 81.8796 247.992C81.8796 248.04 81.8916 248.07 81.9156 248.082C81.9396 248.094 81.9636 248.1 81.9876 248.1C82.1636 248.1 82.3696 247.974 82.6056 247.722C82.8416 247.47 82.9916 247.344 83.0556 247.344C83.1116 247.344 83.1716 247.386 83.2356 247.47C83.2996 247.554 83.3316 247.612 83.3316 247.644ZM88.9234 244.596C88.9234 244.82 88.8654 245.008 88.7494 245.16C88.6334 245.312 88.4634 245.388 88.2394 245.388C88.0794 245.388 87.9394 245.318 87.8194 245.178C87.6994 245.038 87.5954 244.896 87.5074 244.752C87.4114 244.592 87.3054 244.446 87.1894 244.314C87.0734 244.182 86.9394 244.116 86.7874 244.116C86.6434 244.116 86.5434 244.148 86.4874 244.212C86.4314 244.276 86.4034 244.376 86.4034 244.512C86.4034 244.648 86.4934 244.834 86.6734 245.07C86.8534 245.306 87.0314 245.54 87.2074 245.772C87.4074 246.028 87.5914 246.304 87.7594 246.6C87.9274 246.896 88.0114 247.184 88.0114 247.464C88.0114 247.968 87.7934 248.392 87.3574 248.736C86.9214 249.08 86.3834 249.252 85.7434 249.252C85.2554 249.252 84.8194 249.128 84.4354 248.88C84.0514 248.632 83.8594 248.356 83.8594 248.052C83.8594 247.828 83.9194 247.652 84.0394 247.524C84.1594 247.396 84.3314 247.332 84.5554 247.332C84.7154 247.332 84.8614 247.404 84.9934 247.548C85.1254 247.692 85.2434 247.844 85.3474 248.004C85.4594 248.164 85.5794 248.316 85.7074 248.46C85.8354 248.604 85.9794 248.676 86.1394 248.676C86.2434 248.676 86.3234 248.648 86.3794 248.592C86.4354 248.536 86.4634 248.444 86.4634 248.316C86.4634 248.156 86.3794 247.954 86.2114 247.71C86.0434 247.466 85.8794 247.236 85.7194 247.02C85.5274 246.764 85.3534 246.494 85.1974 246.21C85.0414 245.926 84.9634 245.652 84.9634 245.388C84.9634 244.916 85.1654 244.486 85.5694 244.098C85.9734 243.71 86.5314 243.516 87.2434 243.516C87.7234 243.516 88.1234 243.636 88.4434 243.876C88.7634 244.116 88.9234 244.356 88.9234 244.596ZM94.3313 244.824C94.3313 245.28 94.0613 245.726 93.5213 246.162C92.9813 246.598 92.2273 246.816 91.2593 246.816C91.2353 246.92 91.2193 247.022 91.2113 247.122C91.2033 247.222 91.1993 247.316 91.1993 247.404C91.1993 247.684 91.2553 247.916 91.3673 248.1C91.4793 248.284 91.6673 248.376 91.9313 248.376C92.2433 248.376 92.5353 248.276 92.8073 248.076C93.0793 247.876 93.2953 247.664 93.4553 247.44C93.4553 247.44 93.4653 247.44 93.4853 247.44C93.5053 247.44 93.5233 247.444 93.5393 247.452C93.5553 247.46 93.5733 247.474 93.5933 247.494C93.6133 247.514 93.6313 247.532 93.6473 247.548C93.6793 247.58 93.7113 247.622 93.7433 247.674C93.7753 247.726 93.7833 247.764 93.7673 247.788C93.5753 248.18 93.2313 248.522 92.7353 248.814C92.2393 249.106 91.7513 249.252 91.2713 249.252C90.7033 249.252 90.2333 249.088 89.8613 248.76C89.4893 248.432 89.3033 248.024 89.3033 247.536C89.3033 246.512 89.7133 245.586 90.5333 244.758C91.3533 243.93 92.1393 243.516 92.8913 243.516C93.4193 243.516 93.7913 243.65 94.0073 243.918C94.2233 244.186 94.3313 244.488 94.3313 244.824ZM92.8553 244.716C92.8553 244.58 92.8373 244.478 92.8013 244.41C92.7653 244.342 92.6833 244.308 92.5553 244.308C92.3073 244.308 92.0633 244.506 91.8233 244.902C91.5833 245.298 91.4273 245.744 91.3553 246.24C91.7873 246.24 92.1453 246.07 92.4293 245.73C92.7133 245.39 92.8553 245.052 92.8553 244.716ZM101.398 247.836C101.398 247.972 101.134 248.242 100.606 248.646C100.078 249.05 99.5543 249.252 99.0343 249.252C98.7063 249.252 98.4623 249.194 98.3023 249.078C98.1423 248.962 98.0623 248.788 98.0623 248.556C98.0623 248.436 98.0763 248.312 98.1043 248.184C98.1323 248.056 98.1863 247.888 98.2663 247.68L99.0943 245.724C99.1503 245.58 99.1923 245.46 99.2203 245.364C99.2483 245.268 99.2623 245.172 99.2623 245.076C99.2623 244.964 99.2483 244.88 99.2203 244.824C99.1923 244.768 99.1223 244.74 99.0103 244.74C98.8183 244.74 98.5243 245.032 98.1283 245.616C97.7323 246.2 97.3743 246.852 97.0543 247.572L96.5863 248.904C96.5623 248.968 96.4263 249.018 96.1783 249.054C95.9303 249.09 95.7543 249.108 95.6503 249.108C95.5543 249.108 95.3623 249.09 95.0743 249.054C94.7863 249.018 94.6503 248.968 94.6663 248.904L95.8543 245.316C95.9103 245.156 95.9503 245.032 95.9743 244.944C95.9983 244.856 96.0103 244.78 96.0103 244.716C96.0103 244.676 96.0003 244.644 95.9803 244.62C95.9603 244.596 95.9343 244.584 95.9023 244.584C95.7823 244.584 95.6263 244.694 95.4343 244.914C95.2423 245.134 95.1143 245.244 95.0503 245.244C94.9863 245.244 94.9223 245.2 94.8583 245.112C94.7943 245.024 94.7623 244.968 94.7623 244.944C94.7623 244.8 94.9843 244.526 95.4283 244.122C95.8723 243.718 96.3303 243.516 96.8023 243.516C97.1463 243.516 97.4183 243.61 97.6183 243.798C97.8183 243.986 97.9183 244.236 97.9183 244.548C97.9183 244.62 97.9143 244.684 97.9063 244.74C97.8983 244.796 97.8823 244.852 97.8583 244.908L97.6903 245.364C97.9623 244.892 98.3383 244.466 98.8183 244.086C99.2983 243.706 99.7663 243.516 100.222 243.516C100.502 243.516 100.754 243.598 100.978 243.762C101.202 243.926 101.314 244.168 101.314 244.488C101.314 244.648 101.292 244.826 101.248 245.022C101.204 245.218 101.146 245.396 101.074 245.556L100.342 247.368C100.27 247.536 100.218 247.666 100.186 247.758C100.154 247.85 100.138 247.916 100.138 247.956C100.138 248.012 100.146 248.05 100.162 248.07C100.178 248.09 100.202 248.1 100.234 248.1C100.402 248.1 100.576 248.006 100.756 247.818C100.936 247.63 101.054 247.536 101.11 247.536C101.174 247.536 101.238 247.578 101.302 247.662C101.366 247.746 101.398 247.804 101.398 247.836ZM101.482 240.828C101.378 241.548 101.2 242.026 100.948 242.262C100.696 242.494 100.374 242.592 99.9823 242.556L98.3623 242.4C98.1063 242.376 97.8823 242.424 97.6903 242.544C97.4983 242.664 97.3383 242.84 97.2103 243.072C97.2023 243.088 97.1903 243.1 97.1743 243.108C97.1583 243.116 97.1383 243.12 97.1143 243.12C97.0343 243.12 96.9523 243.092 96.8683 243.036C96.7883 242.98 96.7623 242.884 96.7903 242.748C96.9103 242.148 97.1183 241.69 97.4143 241.374C97.7103 241.054 98.1263 240.924 98.6623 240.984L100.054 241.14C100.342 241.172 100.564 241.124 100.72 240.996C100.876 240.868 100.99 240.704 101.062 240.504C101.066 240.488 101.08 240.476 101.104 240.468C101.132 240.46 101.158 240.456 101.182 240.456C101.246 240.456 101.316 240.488 101.392 240.552C101.468 240.616 101.498 240.708 101.482 240.828ZM108.644 243.864L107.108 247.368C107.036 247.536 106.984 247.666 106.952 247.758C106.92 247.85 106.904 247.916 106.904 247.956C106.904 248.012 106.912 248.05 106.928 248.07C106.944 248.09 106.968 248.1 107 248.1C107.168 248.1 107.342 248.006 107.522 247.818C107.702 247.63 107.82 247.536 107.876 247.536C107.94 247.536 108.004 247.578 108.068 247.662C108.132 247.746 108.164 247.804 108.164 247.836C108.164 247.988 107.9 248.262 107.372 248.658C106.844 249.054 106.368 249.252 105.944 249.252C105.616 249.252 105.368 249.19 105.2 249.066C105.032 248.942 104.948 248.764 104.948 248.532C104.948 248.34 104.968 248.182 105.008 248.058C105.048 247.934 105.108 247.788 105.188 247.62C104.828 248.132 104.466 248.532 104.102 248.82C103.738 249.108 103.336 249.252 102.896 249.252C102.52 249.252 102.22 249.12 101.996 248.856C101.772 248.592 101.66 248.248 101.66 247.824C101.66 246.976 102.154 246.06 103.142 245.076C104.13 244.092 105.012 243.6 105.788 243.6C106.02 243.6 106.22 243.66 106.388 243.78C106.556 243.9 106.64 244.064 106.64 244.272L106.856 243.744C106.872 243.696 106.972 243.66 107.156 243.636C107.34 243.612 107.528 243.6 107.72 243.6C107.96 243.6 108.182 243.63 108.386 243.69C108.59 243.75 108.676 243.808 108.644 243.864ZM106.316 244.62C106.316 244.524 106.3 244.454 106.268 244.41C106.236 244.366 106.188 244.344 106.124 244.344C105.98 244.344 105.764 244.47 105.476 244.722C105.188 244.974 104.884 245.296 104.564 245.688C104.276 246.04 104.018 246.42 103.79 246.828C103.562 247.236 103.448 247.568 103.448 247.824C103.448 247.952 103.476 248.042 103.532 248.094C103.588 248.146 103.676 248.172 103.796 248.172C104.108 248.172 104.606 247.69 105.29 246.726C105.974 245.762 106.316 245.06 106.316 244.62Z" fill="black"/>
<circle cx="104.874" cy="49.3114" r="26.0448" fill="white"/>
<path d="M93.9827 44.912C93.9827 44.96 93.9687 45.026 93.9407 45.11C93.9127 45.194 93.8787 45.236 93.8387 45.236C93.3587 45.292 93.0587 45.406 92.9387 45.578C92.8187 45.75 92.7307 45.972 92.6747 46.244L91.3307 53.132C91.3307 53.156 91.3047 53.182 91.2527 53.21C91.2007 53.238 91.1147 53.252 90.9947 53.252C90.8747 53.252 90.7867 53.244 90.7307 53.228C90.6747 53.212 90.6347 53.188 90.6107 53.156L86.4587 47.36L85.6547 51.524C85.5747 51.82 85.5767 52.052 85.6607 52.22C85.7447 52.388 86.0027 52.492 86.4347 52.532C86.4507 52.532 86.4647 52.56 86.4767 52.616C86.4887 52.672 86.4947 52.712 86.4947 52.736C86.4947 52.792 86.4787 52.86 86.4467 52.94C86.4147 53.02 86.3827 53.06 86.3507 53.06C86.1187 53.06 85.8747 53.05 85.6187 53.03C85.3627 53.01 85.1267 53 84.9107 53C84.6787 53 84.4407 53.01 84.1967 53.03C83.9527 53.05 83.7267 53.06 83.5187 53.06C83.5107 53.06 83.4987 53.04 83.4827 53C83.4667 52.96 83.4587 52.912 83.4587 52.856C83.4587 52.8 83.4747 52.734 83.5067 52.658C83.5387 52.582 83.5707 52.54 83.6027 52.532C84.0747 52.476 84.3907 52.368 84.5507 52.208C84.7107 52.048 84.8227 51.82 84.8867 51.524L85.9547 46.64C85.9707 46.576 85.9827 46.52 85.9907 46.472C85.9987 46.424 86.0027 46.356 86.0027 46.268C86.0027 45.996 85.9227 45.774 85.7627 45.602C85.6027 45.43 85.3387 45.32 84.9707 45.272C84.9547 45.264 84.9407 45.234 84.9287 45.182C84.9167 45.13 84.9107 45.092 84.9107 45.068C84.9107 45.012 84.9267 44.944 84.9587 44.864C84.9907 44.784 85.0227 44.744 85.0547 44.744C85.2227 44.744 85.4107 44.75 85.6187 44.762C85.8267 44.774 85.9987 44.78 86.1347 44.78C86.3107 44.78 86.4707 44.774 86.6147 44.762C86.7587 44.75 87.0747 44.744 87.5627 44.744L91.2707 49.976L91.9427 46.244C91.9907 45.932 91.9667 45.702 91.8707 45.554C91.7747 45.406 91.4907 45.3 91.0187 45.236C90.9947 45.228 90.9767 45.198 90.9647 45.146C90.9527 45.094 90.9467 45.056 90.9467 45.032C90.9467 44.976 90.9607 44.908 90.9887 44.828C91.0167 44.748 91.0507 44.708 91.0907 44.708C91.3307 44.708 91.5627 44.72 91.7867 44.744C92.0107 44.768 92.2547 44.78 92.5187 44.78C92.7747 44.78 93.0107 44.768 93.2267 44.744C93.4427 44.72 93.6747 44.708 93.9227 44.708C93.9307 44.708 93.9427 44.728 93.9587 44.768C93.9747 44.808 93.9827 44.856 93.9827 44.912ZM99.9092 47.864L98.3732 51.368C98.3012 51.536 98.2492 51.666 98.2172 51.758C98.1852 51.85 98.1692 51.916 98.1692 51.956C98.1692 52.012 98.1772 52.05 98.1932 52.07C98.2092 52.09 98.2332 52.1 98.2652 52.1C98.4332 52.1 98.6072 52.006 98.7872 51.818C98.9672 51.63 99.0852 51.536 99.1412 51.536C99.2052 51.536 99.2692 51.578 99.3332 51.662C99.3972 51.746 99.4292 51.804 99.4292 51.836C99.4292 51.988 99.1652 52.262 98.6372 52.658C98.1092 53.054 97.6332 53.252 97.2092 53.252C96.8812 53.252 96.6332 53.19 96.4652 53.066C96.2972 52.942 96.2132 52.764 96.2132 52.532C96.2132 52.34 96.2332 52.182 96.2732 52.058C96.3132 51.934 96.3732 51.788 96.4532 51.62C96.0932 52.132 95.7312 52.532 95.3672 52.82C95.0032 53.108 94.6012 53.252 94.1612 53.252C93.7852 53.252 93.4852 53.12 93.2612 52.856C93.0372 52.592 92.9252 52.248 92.9252 51.824C92.9252 50.976 93.4192 50.06 94.4072 49.076C95.3952 48.092 96.2772 47.6 97.0532 47.6C97.2852 47.6 97.4852 47.66 97.6532 47.78C97.8212 47.9 97.9052 48.064 97.9052 48.272L98.1212 47.744C98.1372 47.696 98.2372 47.66 98.4212 47.636C98.6052 47.612 98.7932 47.6 98.9852 47.6C99.2252 47.6 99.4472 47.63 99.6512 47.69C99.8552 47.75 99.9412 47.808 99.9092 47.864ZM97.5812 48.62C97.5812 48.524 97.5652 48.454 97.5332 48.41C97.5012 48.366 97.4532 48.344 97.3892 48.344C97.2452 48.344 97.0292 48.47 96.7412 48.722C96.4532 48.974 96.1492 49.296 95.8292 49.688C95.5412 50.04 95.2832 50.42 95.0552 50.828C94.8272 51.236 94.7132 51.568 94.7132 51.824C94.7132 51.952 94.7412 52.042 94.7972 52.094C94.8532 52.146 94.9412 52.172 95.0612 52.172C95.3732 52.172 95.8712 51.69 96.5552 50.726C97.2392 49.762 97.5812 49.06 97.5812 48.62ZM106.582 48.56C106.582 49.176 106.448 49.774 106.18 50.354C105.912 50.934 105.582 51.432 105.19 51.848C104.766 52.304 104.342 52.652 103.918 52.892C103.494 53.132 103.082 53.252 102.682 53.252C102.234 53.252 101.886 53.122 101.638 52.862C101.39 52.602 101.266 52.26 101.266 51.836C101.266 51.396 101.408 50.896 101.692 50.336C101.976 49.776 102.322 49.312 102.73 48.944C102.674 48.968 102.606 48.99 102.526 49.01C102.446 49.03 102.362 49.04 102.274 49.04C102.106 49.04 101.956 48.988 101.824 48.884C101.692 48.78 101.55 48.728 101.398 48.728C101.206 48.728 101.058 48.766 100.954 48.842C100.85 48.918 100.798 49.016 100.798 49.136C100.798 49.232 100.88 49.344 101.044 49.472C101.208 49.6 101.29 49.74 101.29 49.892C101.29 50.068 101.236 50.212 101.128 50.324C101.02 50.436 100.874 50.492 100.69 50.492C100.554 50.492 100.418 50.43 100.282 50.306C100.146 50.182 100.078 49.964 100.078 49.652C100.078 49.172 100.286 48.696 100.702 48.224C101.118 47.752 101.538 47.516 101.962 47.516C102.186 47.516 102.372 47.548 102.52 47.612C102.668 47.676 102.83 47.708 103.006 47.708C103.174 47.708 103.344 47.69 103.516 47.654C103.688 47.618 103.798 47.6 103.846 47.6C103.902 47.6 103.95 47.62 103.99 47.66C104.03 47.7 104.05 47.748 104.05 47.804C104.05 47.876 103.986 47.99 103.858 48.146C103.73 48.302 103.602 48.468 103.474 48.644C103.322 48.852 103.186 49.122 103.066 49.454C102.946 49.786 102.886 50.176 102.886 50.624C102.886 50.944 102.97 51.214 103.138 51.434C103.306 51.654 103.554 51.764 103.882 51.764C104.314 51.764 104.67 51.608 104.95 51.296C105.23 50.984 105.37 50.492 105.37 49.82C105.37 49.484 105.284 49.224 105.112 49.04C104.94 48.856 104.854 48.652 104.854 48.428C104.854 48.18 104.938 47.966 105.106 47.786C105.274 47.606 105.478 47.516 105.718 47.516C105.982 47.516 106.192 47.606 106.348 47.786C106.504 47.966 106.582 48.224 106.582 48.56ZM112.058 48.824C112.058 49.28 111.788 49.726 111.248 50.162C110.708 50.598 109.954 50.816 108.986 50.816C108.962 50.92 108.946 51.022 108.938 51.122C108.93 51.222 108.926 51.316 108.926 51.404C108.926 51.684 108.982 51.916 109.094 52.1C109.206 52.284 109.394 52.376 109.658 52.376C109.97 52.376 110.262 52.276 110.534 52.076C110.806 51.876 111.022 51.664 111.182 51.44C111.182 51.44 111.192 51.44 111.212 51.44C111.232 51.44 111.25 51.444 111.266 51.452C111.282 51.46 111.3 51.474 111.32 51.494C111.34 51.514 111.358 51.532 111.374 51.548C111.406 51.58 111.438 51.622 111.47 51.674C111.502 51.726 111.51 51.764 111.494 51.788C111.302 52.18 110.958 52.522 110.462 52.814C109.966 53.106 109.478 53.252 108.998 53.252C108.43 53.252 107.96 53.088 107.588 52.76C107.216 52.432 107.03 52.024 107.03 51.536C107.03 50.512 107.44 49.586 108.26 48.758C109.08 47.93 109.866 47.516 110.618 47.516C111.146 47.516 111.518 47.65 111.734 47.918C111.95 48.186 112.058 48.488 112.058 48.824ZM110.582 48.716C110.582 48.58 110.564 48.478 110.528 48.41C110.492 48.342 110.41 48.308 110.282 48.308C110.034 48.308 109.79 48.506 109.55 48.902C109.31 49.298 109.154 49.744 109.082 50.24C109.514 50.24 109.872 50.07 110.156 49.73C110.44 49.39 110.582 49.052 110.582 48.716ZM119.041 48.512C119.025 48.624 118.993 48.754 118.945 48.902C118.897 49.05 118.841 49.124 118.777 49.124L117.997 49.088C117.997 49.128 118.001 49.182 118.009 49.25C118.017 49.318 118.021 49.38 118.021 49.436C118.021 50.132 117.749 50.684 117.205 51.092C116.661 51.5 115.909 51.704 114.949 51.704C114.709 51.704 114.539 51.738 114.439 51.806C114.339 51.874 114.289 51.936 114.289 51.992C114.289 52.176 114.499 52.318 114.919 52.418C115.339 52.518 115.705 52.612 116.017 52.7C116.425 52.804 116.815 52.968 117.187 53.192C117.559 53.416 117.745 53.736 117.745 54.152C117.745 54.744 117.407 55.258 116.731 55.694C116.055 56.13 115.353 56.348 114.625 56.348C113.737 56.348 113.027 56.192 112.495 55.88C111.963 55.568 111.697 55.204 111.697 54.788C111.697 54.444 111.823 54.164 112.075 53.948C112.327 53.732 112.753 53.584 113.353 53.504C113.081 53.4 112.869 53.278 112.717 53.138C112.565 52.998 112.489 52.836 112.489 52.652C112.489 52.388 112.615 52.142 112.867 51.914C113.119 51.686 113.505 51.532 114.025 51.452C113.689 51.284 113.441 51.082 113.281 50.846C113.121 50.61 113.041 50.328 113.041 50C113.041 49.256 113.339 48.656 113.935 48.2C114.531 47.744 115.177 47.516 115.873 47.516C116.361 47.516 116.749 47.59 117.037 47.738C117.325 47.886 117.553 48.08 117.721 48.32L118.957 48.272C118.997 48.272 119.023 48.298 119.035 48.35C119.047 48.402 119.049 48.456 119.041 48.512ZM116.377 48.62C116.377 48.468 116.341 48.342 116.269 48.242C116.197 48.142 116.101 48.092 115.981 48.092C115.741 48.092 115.475 48.366 115.183 48.914C114.891 49.462 114.745 50.028 114.745 50.612C114.745 50.764 114.779 50.888 114.847 50.984C114.915 51.08 115.017 51.128 115.153 51.128C115.465 51.128 115.747 50.844 115.999 50.276C116.251 49.708 116.377 49.156 116.377 48.62ZM116.233 54.8C116.233 54.488 116.021 54.27 115.597 54.146C115.173 54.022 114.637 53.896 113.989 53.768C113.669 53.824 113.425 53.928 113.257 54.08C113.089 54.232 113.005 54.452 113.005 54.74C113.005 55.036 113.131 55.282 113.383 55.478C113.635 55.674 114.057 55.772 114.649 55.772C115.153 55.772 115.543 55.668 115.819 55.46C116.095 55.252 116.233 55.032 116.233 54.8ZM125.433 47.864L123.897 51.368C123.825 51.536 123.773 51.666 123.741 51.758C123.709 51.85 123.693 51.916 123.693 51.956C123.693 52.012 123.701 52.05 123.717 52.07C123.733 52.09 123.757 52.1 123.789 52.1C123.957 52.1 124.131 52.006 124.311 51.818C124.491 51.63 124.609 51.536 124.665 51.536C124.729 51.536 124.793 51.578 124.857 51.662C124.921 51.746 124.953 51.804 124.953 51.836C124.953 51.988 124.689 52.262 124.161 52.658C123.633 53.054 123.157 53.252 122.733 53.252C122.405 53.252 122.157 53.19 121.989 53.066C121.821 52.942 121.737 52.764 121.737 52.532C121.737 52.34 121.757 52.182 121.797 52.058C121.837 51.934 121.897 51.788 121.977 51.62C121.617 52.132 121.255 52.532 120.891 52.82C120.527 53.108 120.125 53.252 119.685 53.252C119.309 53.252 119.009 53.12 118.785 52.856C118.561 52.592 118.449 52.248 118.449 51.824C118.449 50.976 118.943 50.06 119.931 49.076C120.919 48.092 121.801 47.6 122.577 47.6C122.809 47.6 123.009 47.66 123.177 47.78C123.345 47.9 123.429 48.064 123.429 48.272L123.645 47.744C123.661 47.696 123.761 47.66 123.945 47.636C124.129 47.612 124.317 47.6 124.509 47.6C124.749 47.6 124.971 47.63 125.175 47.69C125.379 47.75 125.465 47.808 125.433 47.864ZM123.105 48.62C123.105 48.524 123.089 48.454 123.057 48.41C123.025 48.366 122.977 48.344 122.913 48.344C122.769 48.344 122.553 48.47 122.265 48.722C121.977 48.974 121.673 49.296 121.353 49.688C121.065 50.04 120.807 50.42 120.579 50.828C120.351 51.236 120.237 51.568 120.237 51.824C120.237 51.952 120.265 52.042 120.321 52.094C120.377 52.146 120.465 52.172 120.585 52.172C120.897 52.172 121.395 51.69 122.079 50.726C122.763 49.762 123.105 49.06 123.105 48.62Z" fill="black"/>
<ellipse cx="253.5" cy="98" rx="31.5" ry="31" fill="white"/>
<path d="M234.267 91.648C234.195 92.032 234.115 92.518 234.027 93.106C233.939 93.694 233.875 94.132 233.835 94.42C233.835 94.452 233.801 94.478 233.733 94.498C233.665 94.518 233.611 94.528 233.571 94.528C233.515 94.528 233.459 94.518 233.403 94.498C233.347 94.478 233.315 94.452 233.307 94.42C233.235 93.732 233.115 93.19 232.947 92.794C232.779 92.398 232.443 92.2 231.939 92.2C231.587 92.2 231.211 92.326 230.811 92.578C230.411 92.83 230.035 93.188 229.683 93.652C229.355 94.084 229.079 94.62 228.855 95.26C228.631 95.9 228.519 96.556 228.519 97.228C228.519 98.092 228.699 98.716 229.059 99.1C229.419 99.484 229.855 99.676 230.367 99.676C230.919 99.676 231.439 99.42 231.927 98.908C232.415 98.396 232.787 97.816 233.043 97.168C233.059 97.136 233.097 97.112 233.157 97.096C233.217 97.08 233.275 97.072 233.331 97.072C233.371 97.072 233.425 97.082 233.493 97.102C233.561 97.122 233.587 97.144 233.571 97.168C233.491 97.472 233.389 97.902 233.265 98.458C233.141 99.014 233.039 99.488 232.959 99.88C232.671 99.952 232.307 100.032 231.867 100.12C231.427 100.208 230.871 100.252 230.199 100.252C229.039 100.252 228.087 99.94 227.343 99.316C226.599 98.692 226.227 97.856 226.227 96.808C226.227 96.144 226.373 95.492 226.665 94.852C226.957 94.212 227.395 93.636 227.979 93.124C228.547 92.636 229.249 92.248 230.085 91.96C230.921 91.672 231.867 91.528 232.923 91.528C233.203 91.528 233.445 91.538 233.649 91.558C233.853 91.578 234.059 91.608 234.267 91.648ZM240.102 96.508C240.102 96.948 240.018 97.396 239.85 97.852C239.682 98.308 239.442 98.708 239.13 99.052C238.794 99.42 238.414 99.712 237.99 99.928C237.566 100.144 237.042 100.252 236.418 100.252C235.746 100.252 235.222 100.064 234.846 99.688C234.47 99.312 234.282 98.84 234.282 98.272C234.282 97.8 234.36 97.354 234.516 96.934C234.672 96.514 234.918 96.112 235.254 95.728C235.558 95.368 235.944 95.076 236.412 94.852C236.88 94.628 237.398 94.516 237.966 94.516C238.638 94.516 239.162 94.704 239.538 95.08C239.914 95.456 240.102 95.932 240.102 96.508ZM238.338 95.608C238.338 95.44 238.308 95.314 238.248 95.23C238.188 95.146 238.094 95.104 237.966 95.104C237.75 95.104 237.53 95.244 237.306 95.524C237.082 95.804 236.87 96.176 236.67 96.64C236.478 97.088 236.328 97.548 236.22 98.02C236.112 98.492 236.058 98.872 236.058 99.16C236.058 99.32 236.088 99.446 236.148 99.538C236.208 99.63 236.298 99.676 236.418 99.676C236.642 99.676 236.872 99.524 237.108 99.22C237.344 98.916 237.55 98.552 237.726 98.128C237.902 97.704 238.048 97.262 238.164 96.802C238.28 96.342 238.338 95.944 238.338 95.608ZM247.244 98.836C247.244 98.972 246.98 99.242 246.452 99.646C245.924 100.05 245.4 100.252 244.88 100.252C244.552 100.252 244.308 100.194 244.148 100.078C243.988 99.962 243.908 99.788 243.908 99.556C243.908 99.436 243.922 99.312 243.95 99.184C243.978 99.056 244.032 98.888 244.112 98.68L244.94 96.724C244.996 96.58 245.038 96.46 245.066 96.364C245.094 96.268 245.108 96.172 245.108 96.076C245.108 95.964 245.094 95.88 245.066 95.824C245.038 95.768 244.968 95.74 244.856 95.74C244.664 95.74 244.37 96.032 243.974 96.616C243.578 97.2 243.22 97.852 242.9 98.572L242.432 99.904C242.408 99.968 242.272 100.018 242.024 100.054C241.776 100.09 241.6 100.108 241.496 100.108C241.4 100.108 241.208 100.09 240.92 100.054C240.632 100.018 240.496 99.968 240.512 99.904L241.7 96.316C241.756 96.156 241.796 96.032 241.82 95.944C241.844 95.856 241.856 95.78 241.856 95.716C241.856 95.676 241.846 95.644 241.826 95.62C241.806 95.596 241.78 95.584 241.748 95.584C241.628 95.584 241.472 95.694 241.28 95.914C241.088 96.134 240.96 96.244 240.896 96.244C240.832 96.244 240.768 96.2 240.704 96.112C240.64 96.024 240.608 95.968 240.608 95.944C240.608 95.8 240.83 95.526 241.274 95.122C241.718 94.718 242.176 94.516 242.648 94.516C242.992 94.516 243.264 94.61 243.464 94.798C243.664 94.986 243.764 95.236 243.764 95.548C243.764 95.62 243.76 95.684 243.752 95.74C243.744 95.796 243.728 95.852 243.704 95.908L243.536 96.364C243.808 95.892 244.184 95.466 244.664 95.086C245.144 94.706 245.612 94.516 246.068 94.516C246.348 94.516 246.6 94.598 246.824 94.762C247.048 94.926 247.16 95.168 247.16 95.488C247.16 95.648 247.138 95.826 247.094 96.022C247.05 96.218 246.992 96.396 246.92 96.556L246.188 98.368C246.116 98.536 246.064 98.666 246.032 98.758C246 98.85 245.984 98.916 245.984 98.956C245.984 99.012 245.992 99.05 246.008 99.07C246.024 99.09 246.048 99.1 246.08 99.1C246.248 99.1 246.422 99.006 246.602 98.818C246.782 98.63 246.9 98.536 246.956 98.536C247.02 98.536 247.084 98.578 247.148 98.662C247.212 98.746 247.244 98.804 247.244 98.836ZM257.525 95.632C257.525 95.912 257.441 96.15 257.273 96.346C257.105 96.542 256.881 96.64 256.601 96.64C256.449 96.64 256.337 96.612 256.265 96.556C256.193 96.5 256.129 96.432 256.073 96.352C256.025 96.28 255.969 96.212 255.905 96.148C255.841 96.084 255.757 96.052 255.653 96.052C255.397 96.052 255.055 96.458 254.627 97.27C254.199 98.082 253.813 98.992 253.469 100C253.445 100.064 253.305 100.114 253.049 100.15C252.793 100.186 252.621 100.204 252.533 100.204C252.437 100.204 252.245 100.186 251.957 100.15C251.669 100.114 251.533 100.064 251.549 100L252.737 96.412C252.761 96.332 252.785 96.25 252.809 96.166C252.833 96.082 252.845 96.004 252.845 95.932C252.845 95.86 252.831 95.81 252.803 95.782C252.775 95.754 252.745 95.74 252.713 95.74H251.081L250.085 99.868C249.797 101.06 249.337 101.958 248.705 102.562C248.073 103.166 247.317 103.468 246.437 103.468C245.941 103.468 245.497 103.33 245.105 103.054C244.713 102.778 244.517 102.464 244.517 102.112C244.517 101.856 244.607 101.636 244.787 101.452C244.967 101.268 245.213 101.176 245.525 101.176C245.781 101.176 245.987 101.254 246.143 101.41C246.299 101.566 246.429 101.74 246.533 101.932C246.629 102.108 246.729 102.276 246.833 102.436C246.937 102.596 247.061 102.676 247.205 102.676C247.381 102.676 247.525 102.56 247.637 102.328C247.749 102.096 247.853 101.732 247.949 101.236L249.101 95.872C249.101 95.84 249.095 95.81 249.083 95.782C249.071 95.754 249.033 95.74 248.969 95.74H248.009C247.977 95.74 247.953 95.708 247.937 95.644C247.921 95.58 247.913 95.536 247.913 95.512C247.913 95.456 247.927 95.402 247.955 95.35C247.983 95.298 248.013 95.268 248.045 95.26C248.629 95.188 248.991 95.12 249.131 95.056C249.271 94.992 249.345 94.936 249.353 94.888C249.609 93.96 250.111 93.13 250.859 92.398C251.607 91.666 252.489 91.3 253.505 91.3C253.937 91.3 254.317 91.432 254.645 91.696C254.973 91.96 255.137 92.256 255.137 92.584C255.137 92.848 255.045 93.082 254.861 93.286C254.677 93.49 254.449 93.592 254.177 93.592C253.945 93.592 253.775 93.52 253.667 93.376C253.559 93.232 253.469 93.076 253.397 92.908C253.325 92.732 253.247 92.572 253.163 92.428C253.079 92.284 252.945 92.212 252.761 92.212C252.377 92.212 252.091 92.406 251.903 92.794C251.715 93.182 251.489 93.94 251.225 95.068H253.697C253.865 95.068 254.039 95.046 254.219 95.002C254.399 94.958 254.537 94.936 254.633 94.936C254.817 94.936 254.907 95.048 254.903 95.272C254.899 95.496 254.845 95.732 254.741 95.98L254.381 96.94C254.765 96.196 255.123 95.624 255.455 95.224C255.787 94.824 256.129 94.624 256.481 94.624C256.793 94.624 257.045 94.716 257.237 94.9C257.429 95.084 257.525 95.328 257.525 95.632ZM263.176 96.508C263.176 96.948 263.092 97.396 262.924 97.852C262.756 98.308 262.516 98.708 262.204 99.052C261.868 99.42 261.488 99.712 261.064 99.928C260.64 100.144 260.116 100.252 259.492 100.252C258.82 100.252 258.296 100.064 257.92 99.688C257.544 99.312 257.356 98.84 257.356 98.272C257.356 97.8 257.434 97.354 257.59 96.934C257.746 96.514 257.992 96.112 258.328 95.728C258.632 95.368 259.018 95.076 259.486 94.852C259.954 94.628 260.472 94.516 261.04 94.516C261.712 94.516 262.236 94.704 262.612 95.08C262.988 95.456 263.176 95.932 263.176 96.508ZM261.412 95.608C261.412 95.44 261.382 95.314 261.322 95.23C261.262 95.146 261.168 95.104 261.04 95.104C260.824 95.104 260.604 95.244 260.38 95.524C260.156 95.804 259.944 96.176 259.744 96.64C259.552 97.088 259.402 97.548 259.294 98.02C259.186 98.492 259.132 98.872 259.132 99.16C259.132 99.32 259.162 99.446 259.222 99.538C259.282 99.63 259.372 99.676 259.492 99.676C259.716 99.676 259.946 99.524 260.182 99.22C260.418 98.916 260.624 98.552 260.8 98.128C260.976 97.704 261.122 97.262 261.238 96.802C261.354 96.342 261.412 95.944 261.412 95.608ZM270.318 98.836C270.318 98.972 270.054 99.242 269.526 99.646C268.998 100.05 268.474 100.252 267.954 100.252C267.626 100.252 267.382 100.194 267.222 100.078C267.062 99.962 266.982 99.788 266.982 99.556C266.982 99.436 266.996 99.312 267.024 99.184C267.052 99.056 267.106 98.888 267.186 98.68L268.014 96.724C268.07 96.58 268.112 96.46 268.14 96.364C268.168 96.268 268.182 96.172 268.182 96.076C268.182 95.964 268.168 95.88 268.14 95.824C268.112 95.768 268.042 95.74 267.93 95.74C267.738 95.74 267.444 96.032 267.048 96.616C266.652 97.2 266.294 97.852 265.974 98.572L265.506 99.904C265.482 99.968 265.346 100.018 265.098 100.054C264.85 100.09 264.674 100.108 264.57 100.108C264.474 100.108 264.282 100.09 263.994 100.054C263.706 100.018 263.57 99.968 263.586 99.904L264.774 96.316C264.83 96.156 264.87 96.032 264.894 95.944C264.918 95.856 264.93 95.78 264.93 95.716C264.93 95.676 264.92 95.644 264.9 95.62C264.88 95.596 264.854 95.584 264.822 95.584C264.702 95.584 264.546 95.694 264.354 95.914C264.162 96.134 264.034 96.244 263.97 96.244C263.906 96.244 263.842 96.2 263.778 96.112C263.714 96.024 263.682 95.968 263.682 95.944C263.682 95.8 263.904 95.526 264.348 95.122C264.792 94.718 265.25 94.516 265.722 94.516C266.066 94.516 266.338 94.61 266.538 94.798C266.738 94.986 266.838 95.236 266.838 95.548C266.838 95.62 266.834 95.684 266.826 95.74C266.818 95.796 266.802 95.852 266.778 95.908L266.61 96.364C266.882 95.892 267.258 95.466 267.738 95.086C268.218 94.706 268.686 94.516 269.142 94.516C269.422 94.516 269.674 94.598 269.898 94.762C270.122 94.926 270.234 95.168 270.234 95.488C270.234 95.648 270.212 95.826 270.168 96.022C270.124 96.218 270.066 96.396 269.994 96.556L269.262 98.368C269.19 98.536 269.138 98.666 269.106 98.758C269.074 98.85 269.058 98.916 269.058 98.956C269.058 99.012 269.066 99.05 269.082 99.07C269.098 99.09 269.122 99.1 269.154 99.1C269.322 99.1 269.496 99.006 269.676 98.818C269.856 98.63 269.974 98.536 270.03 98.536C270.094 98.536 270.158 98.578 270.222 98.662C270.286 98.746 270.318 98.804 270.318 98.836ZM275.584 95.08C275.584 95.16 275.554 95.252 275.494 95.356C275.434 95.46 275.38 95.512 275.332 95.512L274.132 95.476L273.16 98.368C273.128 98.464 273.1 98.562 273.076 98.662C273.052 98.762 273.04 98.844 273.04 98.908C273.04 98.972 273.048 99.02 273.064 99.052C273.08 99.084 273.116 99.1 273.172 99.1C273.372 99.1 273.604 98.97 273.868 98.71C274.132 98.45 274.292 98.32 274.348 98.32C274.412 98.32 274.49 98.364 274.582 98.452C274.674 98.54 274.72 98.6 274.72 98.632C274.72 98.68 274.63 98.796 274.45 98.98C274.27 99.164 274.06 99.34 273.82 99.508C273.524 99.724 273.246 99.902 272.986 100.042C272.726 100.182 272.448 100.252 272.152 100.252C271.808 100.252 271.534 100.162 271.33 99.982C271.126 99.802 271.024 99.548 271.024 99.22C271.024 99.1 271.034 99 271.054 98.92C271.074 98.84 271.104 98.732 271.144 98.596L272.2 95.488L271.288 95.512C271.24 95.512 271.206 95.476 271.186 95.404C271.166 95.332 271.156 95.272 271.156 95.224C271.156 95.136 271.186 95.042 271.246 94.942C271.306 94.842 271.356 94.792 271.396 94.792H272.44L272.884 93.496C272.9 93.432 273.058 93.382 273.358 93.346C273.658 93.31 273.844 93.292 273.916 93.292C274.028 93.292 274.21 93.312 274.462 93.352C274.714 93.392 274.828 93.44 274.804 93.496L274.36 94.792H275.452C275.5 94.792 275.534 94.828 275.554 94.9C275.574 94.972 275.584 95.032 275.584 95.08ZM282.192 94.864L280.656 98.368C280.584 98.536 280.532 98.666 280.5 98.758C280.468 98.85 280.452 98.916 280.452 98.956C280.452 99.012 280.46 99.05 280.476 99.07C280.492 99.09 280.516 99.1 280.548 99.1C280.716 99.1 280.89 99.006 281.07 98.818C281.25 98.63 281.368 98.536 281.424 98.536C281.488 98.536 281.552 98.578 281.616 98.662C281.68 98.746 281.712 98.804 281.712 98.836C281.712 98.988 281.448 99.262 280.92 99.658C280.392 100.054 279.916 100.252 279.492 100.252C279.164 100.252 278.916 100.19 278.748 100.066C278.58 99.942 278.496 99.764 278.496 99.532C278.496 99.34 278.516 99.182 278.556 99.058C278.596 98.934 278.656 98.788 278.736 98.62C278.376 99.132 278.014 99.532 277.65 99.82C277.286 100.108 276.884 100.252 276.444 100.252C276.068 100.252 275.768 100.12 275.544 99.856C275.32 99.592 275.208 99.248 275.208 98.824C275.208 97.976 275.702 97.06 276.69 96.076C277.678 95.092 278.56 94.6 279.336 94.6C279.568 94.6 279.768 94.66 279.936 94.78C280.104 94.9 280.188 95.064 280.188 95.272L280.404 94.744C280.42 94.696 280.52 94.66 280.704 94.636C280.888 94.612 281.076 94.6 281.268 94.6C281.508 94.6 281.73 94.63 281.934 94.69C282.138 94.75 282.224 94.808 282.192 94.864ZM279.864 95.62C279.864 95.524 279.848 95.454 279.816 95.41C279.784 95.366 279.736 95.344 279.672 95.344C279.528 95.344 279.312 95.47 279.024 95.722C278.736 95.974 278.432 96.296 278.112 96.688C277.824 97.04 277.566 97.42 277.338 97.828C277.11 98.236 276.996 98.568 276.996 98.824C276.996 98.952 277.024 99.042 277.08 99.094C277.136 99.146 277.224 99.172 277.344 99.172C277.656 99.172 278.154 98.69 278.838 97.726C279.522 96.762 279.864 96.06 279.864 95.62Z" fill="black"/>
<circle cx="172.59" cy="172.59" r="52.7841" fill="white"/>
<path d="M159.776 160.864C159.552 161.52 159.28 162.452 158.96 163.66C158.64 164.868 158.392 165.888 158.216 166.72C157.32 166.688 156.188 166.66 154.82 166.636C153.452 166.612 152.288 166.6 151.328 166.6C150.368 166.6 149.104 166.616 147.536 166.648C145.968 166.68 144.744 166.704 143.864 166.72C143.832 166.72 143.8 166.68 143.768 166.6C143.736 166.52 143.72 166.424 143.72 166.312C143.72 166.2 143.768 166.068 143.864 165.916C143.96 165.764 144.04 165.68 144.104 165.664C145.048 165.552 145.648 165.352 145.904 165.064C146.16 164.776 146.36 164.304 146.504 163.648L149 153.112C149.048 152.952 149.084 152.808 149.108 152.68C149.132 152.552 149.144 152.424 149.144 152.296C149.144 151.944 149.068 151.684 148.916 151.516C148.764 151.348 148.256 151.208 147.392 151.096C147.344 151.08 147.312 151.02 147.296 150.916C147.28 150.812 147.272 150.736 147.272 150.688C147.272 150.576 147.316 150.44 147.404 150.28C147.492 150.12 147.568 150.04 147.632 150.04C148.4 150.04 149.176 150.06 149.96 150.1C150.744 150.14 151.448 150.16 152.072 150.16C152.68 150.16 153.38 150.14 154.172 150.1C154.964 150.06 155.704 150.04 156.392 150.04C156.424 150.04 156.456 150.064 156.488 150.112C156.52 150.16 156.536 150.24 156.536 150.352C156.536 150.464 156.488 150.616 156.392 150.808C156.296 151 156.216 151.096 156.152 151.096C155.224 151.192 154.636 151.38 154.388 151.66C154.14 151.94 153.928 152.424 153.752 153.112L151.328 163.264C151.296 163.392 151.252 163.596 151.196 163.876C151.14 164.156 151.112 164.352 151.112 164.464C151.112 164.832 151.216 165.084 151.424 165.22C151.632 165.356 151.896 165.424 152.216 165.424H152.864C154.048 165.424 155.188 164.94 156.284 163.972C157.38 163.004 158.192 161.848 158.72 160.504C158.72 160.488 158.78 160.476 158.9 160.468C159.02 160.46 159.12 160.456 159.2 160.456C159.344 160.456 159.484 160.508 159.62 160.612C159.756 160.716 159.808 160.8 159.776 160.864ZM172.307 159.616C172.307 160.496 172.139 161.392 171.803 162.304C171.467 163.216 170.987 164.016 170.363 164.704C169.691 165.44 168.931 166.024 168.083 166.456C167.235 166.888 166.187 167.104 164.939 167.104C163.595 167.104 162.547 166.728 161.795 165.976C161.043 165.224 160.667 164.28 160.667 163.144C160.667 162.2 160.823 161.308 161.135 160.468C161.447 159.628 161.939 158.824 162.611 158.056C163.219 157.336 163.991 156.752 164.927 156.304C165.863 155.856 166.899 155.632 168.035 155.632C169.379 155.632 170.427 156.008 171.179 156.76C171.931 157.512 172.307 158.464 172.307 159.616ZM168.779 157.816C168.779 157.48 168.719 157.228 168.599 157.06C168.479 156.892 168.291 156.808 168.035 156.808C167.603 156.808 167.163 157.088 166.715 157.648C166.267 158.208 165.843 158.952 165.443 159.88C165.059 160.776 164.759 161.696 164.543 162.64C164.327 163.584 164.219 164.344 164.219 164.92C164.219 165.24 164.279 165.492 164.399 165.676C164.519 165.86 164.699 165.952 164.939 165.952C165.387 165.952 165.847 165.648 166.319 165.04C166.791 164.432 167.203 163.704 167.555 162.856C167.907 162.008 168.199 161.124 168.431 160.204C168.663 159.284 168.779 158.488 168.779 157.816ZM183.063 157.792C183.063 158.24 182.947 158.616 182.715 158.92C182.483 159.224 182.143 159.376 181.695 159.376C181.375 159.376 181.095 159.236 180.855 158.956C180.615 158.676 180.407 158.392 180.231 158.104C180.039 157.784 179.827 157.492 179.595 157.228C179.363 156.964 179.095 156.832 178.791 156.832C178.503 156.832 178.303 156.896 178.191 157.024C178.079 157.152 178.023 157.352 178.023 157.624C178.023 157.896 178.203 158.268 178.563 158.74C178.923 159.212 179.279 159.68 179.631 160.144C180.031 160.656 180.399 161.208 180.735 161.8C181.071 162.392 181.239 162.968 181.239 163.528C181.239 164.536 180.803 165.384 179.931 166.072C179.059 166.76 177.983 167.104 176.703 167.104C175.727 167.104 174.855 166.856 174.087 166.36C173.319 165.864 172.935 165.312 172.935 164.704C172.935 164.256 173.055 163.904 173.295 163.648C173.535 163.392 173.879 163.264 174.327 163.264C174.647 163.264 174.939 163.408 175.203 163.696C175.467 163.984 175.703 164.288 175.911 164.608C176.135 164.928 176.375 165.232 176.631 165.52C176.887 165.808 177.175 165.952 177.495 165.952C177.703 165.952 177.863 165.896 177.975 165.784C178.087 165.672 178.143 165.488 178.143 165.232C178.143 164.912 177.975 164.508 177.639 164.02C177.303 163.532 176.975 163.072 176.655 162.64C176.271 162.128 175.923 161.588 175.611 161.02C175.299 160.452 175.143 159.904 175.143 159.376C175.143 158.432 175.547 157.572 176.355 156.796C177.163 156.02 178.279 155.632 179.703 155.632C180.663 155.632 181.463 155.872 182.103 156.352C182.743 156.832 183.063 157.312 183.063 157.792ZM200.193 165.472C200.193 165.76 200.141 166.02 200.037 166.252C199.933 166.484 199.817 166.6 199.689 166.6H197.073L195.897 171.496C195.865 171.624 195.629 171.74 195.189 171.844C194.749 171.948 194.337 172 193.953 172C193.457 172 193.009 171.956 192.609 171.868C192.209 171.78 192.025 171.656 192.057 171.496L193.209 166.6H187.233C187.153 166.6 187.089 166.568 187.041 166.504C186.993 166.44 186.969 166.376 186.969 166.312C186.969 166.168 186.985 166.044 187.017 165.94C187.049 165.836 187.105 165.736 187.185 165.64L197.913 155.656C198.057 155.512 198.213 155.412 198.381 155.356C198.549 155.3 198.697 155.272 198.825 155.272C199.049 155.272 199.253 155.32 199.437 155.416C199.621 155.512 199.697 155.608 199.665 155.704L197.385 164.92H200.001C200.065 164.92 200.113 164.98 200.145 165.1C200.177 165.22 200.193 165.344 200.193 165.472ZM194.769 160.168L189.609 164.92H193.521L194.769 160.168ZM155.077 183.4C155.077 185.224 154.413 186.964 153.085 188.62C151.757 190.276 150.109 191.104 148.141 191.104C147.677 191.104 147.257 191.016 146.881 190.84C146.505 190.664 146.245 190.44 146.101 190.168L144.733 194.152C144.669 194.328 144.625 194.484 144.601 194.62C144.577 194.756 144.565 194.88 144.565 194.992C144.565 195.328 144.741 195.556 145.093 195.676C145.445 195.796 145.765 195.872 146.053 195.904C146.085 195.904 146.113 195.924 146.137 195.964C146.161 196.004 146.173 196.048 146.173 196.096C146.173 196.224 146.125 196.4 146.029 196.624C145.933 196.848 145.845 196.96 145.765 196.96C144.773 196.88 143.517 196.824 141.997 196.792C140.477 196.76 139.277 196.744 138.397 196.744C138.381 196.744 138.361 196.7 138.337 196.612C138.313 196.524 138.301 196.424 138.301 196.312C138.301 196.216 138.349 196.088 138.445 195.928C138.541 195.768 138.621 195.688 138.685 195.688C139.245 195.64 139.709 195.496 140.077 195.256C140.445 195.016 140.709 194.648 140.869 194.152L144.829 182.608C144.525 182.736 144.237 182.876 143.965 183.028C143.693 183.18 143.469 183.304 143.293 183.4C143.245 183.416 143.193 183.372 143.137 183.268C143.081 183.164 143.037 183.056 143.005 182.944C142.957 182.72 142.949 182.548 142.981 182.428C143.013 182.308 143.093 182.208 143.221 182.128C143.557 181.888 143.885 181.676 144.205 181.492C144.525 181.308 144.925 181.104 145.405 180.88L146.533 177.592C146.565 177.464 146.881 177.364 147.481 177.292C148.081 177.22 148.453 177.184 148.597 177.184C148.821 177.184 149.189 177.216 149.701 177.28C150.213 177.344 150.437 177.448 150.373 177.592L149.605 179.896C149.877 179.8 150.125 179.732 150.349 179.692C150.573 179.652 150.805 179.632 151.045 179.632C152.181 179.632 153.137 179.916 153.913 180.484C154.689 181.052 155.077 182.024 155.077 183.4ZM151.309 182.776C151.309 182.088 151.201 181.64 150.985 181.432C150.769 181.224 150.485 181.12 150.133 181.12C149.925 181.12 149.753 181.14 149.617 181.18C149.481 181.22 149.309 181.28 149.101 181.36L147.205 186.904C147.077 187.272 146.985 187.604 146.929 187.9C146.873 188.196 146.845 188.464 146.845 188.704C146.845 189.088 146.953 189.388 147.169 189.604C147.385 189.82 147.621 189.928 147.877 189.928C148.597 189.928 149.349 189.128 150.133 187.528C150.917 185.928 151.309 184.344 151.309 182.776ZM169.629 180.328L166.557 187.336C166.413 187.672 166.309 187.932 166.245 188.116C166.181 188.3 166.149 188.432 166.149 188.512C166.149 188.624 166.165 188.7 166.197 188.74C166.229 188.78 166.277 188.8 166.341 188.8C166.677 188.8 167.025 188.612 167.385 188.236C167.745 187.86 167.981 187.672 168.093 187.672C168.221 187.672 168.349 187.756 168.477 187.924C168.605 188.092 168.669 188.208 168.669 188.272C168.669 188.576 168.141 189.124 167.085 189.916C166.029 190.708 165.077 191.104 164.229 191.104C163.573 191.104 163.077 190.98 162.741 190.732C162.405 190.484 162.237 190.128 162.237 189.664C162.237 189.28 162.277 188.964 162.357 188.716C162.437 188.468 162.557 188.176 162.717 187.84C161.997 188.864 161.273 189.664 160.545 190.24C159.817 190.816 159.013 191.104 158.133 191.104C157.381 191.104 156.781 190.84 156.333 190.312C155.885 189.784 155.661 189.096 155.661 188.248C155.661 186.552 156.649 184.72 158.625 182.752C160.601 180.784 162.365 179.8 163.917 179.8C164.381 179.8 164.781 179.92 165.117 180.16C165.453 180.4 165.621 180.728 165.621 181.144L166.053 180.088C166.085 179.992 166.285 179.92 166.653 179.872C167.021 179.824 167.397 179.8 167.781 179.8C168.261 179.8 168.705 179.86 169.113 179.98C169.521 180.1 169.693 180.216 169.629 180.328ZM164.973 181.84C164.973 181.648 164.941 181.508 164.877 181.42C164.813 181.332 164.717 181.288 164.589 181.288C164.301 181.288 163.869 181.54 163.293 182.044C162.717 182.548 162.109 183.192 161.469 183.976C160.893 184.68 160.377 185.44 159.921 186.256C159.465 187.072 159.237 187.736 159.237 188.248C159.237 188.504 159.293 188.684 159.405 188.788C159.517 188.892 159.693 188.944 159.933 188.944C160.557 188.944 161.553 187.98 162.921 186.052C164.289 184.124 164.973 182.72 164.973 181.84ZM179.782 181.792C179.782 182.24 179.666 182.616 179.434 182.92C179.202 183.224 178.862 183.376 178.414 183.376C178.094 183.376 177.814 183.236 177.574 182.956C177.334 182.676 177.126 182.392 176.95 182.104C176.758 181.784 176.546 181.492 176.314 181.228C176.082 180.964 175.814 180.832 175.51 180.832C175.222 180.832 175.022 180.896 174.91 181.024C174.798 181.152 174.742 181.352 174.742 181.624C174.742 181.896 174.922 182.268 175.282 182.74C175.642 183.212 175.998 183.68 176.35 184.144C176.75 184.656 177.118 185.208 177.454 185.8C177.79 186.392 177.958 186.968 177.958 187.528C177.958 188.536 177.522 189.384 176.65 190.072C175.778 190.76 174.702 191.104 173.422 191.104C172.446 191.104 171.574 190.856 170.806 190.36C170.038 189.864 169.654 189.312 169.654 188.704C169.654 188.256 169.774 187.904 170.014 187.648C170.254 187.392 170.598 187.264 171.046 187.264C171.366 187.264 171.658 187.408 171.922 187.696C172.186 187.984 172.422 188.288 172.63 188.608C172.854 188.928 173.094 189.232 173.35 189.52C173.606 189.808 173.894 189.952 174.214 189.952C174.422 189.952 174.582 189.896 174.694 189.784C174.806 189.672 174.862 189.488 174.862 189.232C174.862 188.912 174.694 188.508 174.358 188.02C174.022 187.532 173.694 187.072 173.374 186.64C172.99 186.128 172.642 185.588 172.33 185.02C172.018 184.452 171.862 183.904 171.862 183.376C171.862 182.432 172.266 181.572 173.074 180.796C173.882 180.02 174.998 179.632 176.422 179.632C177.382 179.632 178.182 179.872 178.822 180.352C179.462 180.832 179.782 181.312 179.782 181.792ZM192.182 183.616C192.182 184.496 192.014 185.392 191.678 186.304C191.342 187.216 190.862 188.016 190.238 188.704C189.566 189.44 188.806 190.024 187.958 190.456C187.11 190.888 186.062 191.104 184.814 191.104C183.47 191.104 182.422 190.728 181.67 189.976C180.918 189.224 180.542 188.28 180.542 187.144C180.542 186.2 180.698 185.308 181.01 184.468C181.322 183.628 181.814 182.824 182.486 182.056C183.094 181.336 183.866 180.752 184.802 180.304C185.738 179.856 186.774 179.632 187.91 179.632C189.254 179.632 190.302 180.008 191.054 180.76C191.806 181.512 192.182 182.464 192.182 183.616ZM188.654 181.816C188.654 181.48 188.594 181.228 188.474 181.06C188.354 180.892 188.166 180.808 187.91 180.808C187.478 180.808 187.038 181.088 186.59 181.648C186.142 182.208 185.718 182.952 185.318 183.88C184.934 184.776 184.634 185.696 184.418 186.64C184.202 187.584 184.094 188.344 184.094 188.92C184.094 189.24 184.154 189.492 184.274 189.676C184.394 189.86 184.574 189.952 184.814 189.952C185.262 189.952 185.722 189.648 186.194 189.04C186.666 188.432 187.078 187.704 187.43 186.856C187.782 186.008 188.074 185.124 188.306 184.204C188.538 183.284 188.654 182.488 188.654 181.816ZM202.938 181.792C202.938 182.24 202.822 182.616 202.59 182.92C202.358 183.224 202.018 183.376 201.57 183.376C201.25 183.376 200.97 183.236 200.73 182.956C200.49 182.676 200.282 182.392 200.106 182.104C199.914 181.784 199.702 181.492 199.47 181.228C199.238 180.964 198.97 180.832 198.666 180.832C198.378 180.832 198.178 180.896 198.066 181.024C197.954 181.152 197.898 181.352 197.898 181.624C197.898 181.896 198.078 182.268 198.438 182.74C198.798 183.212 199.154 183.68 199.506 184.144C199.906 184.656 200.274 185.208 200.61 185.8C200.946 186.392 201.114 186.968 201.114 187.528C201.114 188.536 200.678 189.384 199.806 190.072C198.934 190.76 197.858 191.104 196.578 191.104C195.602 191.104 194.73 190.856 193.962 190.36C193.194 189.864 192.81 189.312 192.81 188.704C192.81 188.256 192.93 187.904 193.17 187.648C193.41 187.392 193.754 187.264 194.202 187.264C194.522 187.264 194.814 187.408 195.078 187.696C195.342 187.984 195.578 188.288 195.786 188.608C196.01 188.928 196.25 189.232 196.506 189.52C196.762 189.808 197.05 189.952 197.37 189.952C197.578 189.952 197.738 189.896 197.85 189.784C197.962 189.672 198.018 189.488 198.018 189.232C198.018 188.912 197.85 188.508 197.514 188.02C197.178 187.532 196.85 187.072 196.53 186.64C196.146 186.128 195.798 185.588 195.486 185.02C195.174 184.452 195.018 183.904 195.018 183.376C195.018 182.432 195.422 181.572 196.23 180.796C197.038 180.02 198.154 179.632 199.578 179.632C200.538 179.632 201.338 179.872 201.978 180.352C202.618 180.832 202.938 181.312 202.938 181.792Z" fill="black"/>
</svg>
